<svg width="165" height="93" viewBox="0 0 165 93" fill="none" xmlns="http://www.w3.org/2000/svg">
<path d="M92.5678 30.9866V34.394L98.9201 32.069V63.256H83.0593V52.0319L92.5678 48.5444V58.7664L95.724 57.6039V43.9746L79.9031 49.7871V66.4629H102.116V27.419L92.5678 30.9866Z" fill="white"/>
<path d="M89.4116 59.9289V53.1142L86.2155 54.2767V61.0914L89.4116 59.9289Z" fill="white"/>
<path d="M76.707 37.641L73.5508 36.4785V41.85L76.707 40.7677V37.641Z" fill="white"/>
<path d="M95.724 40.5271V37.1599L83.0593 41.8099V33.031L73.5509 29.5435V32.9909L79.9031 35.3159V42.9724H79.8632L70.3547 46.4198V46.4599V24.9336L86.2155 30.7862V37.2801L89.4116 36.1176V28.5013L83.0593 26.1763V13.8297L79.8632 14.9922V25.0539L76.7869 23.9314V12.7875L86.2155 9.34006V23.8112L89.4116 24.9737V4.77023L73.5509 10.5827V22.7289L67.1985 20.4439V47.6224L64.0424 48.7849L60.8463 49.9474V66.4228H76.707V50.9495L67.1985 54.437V61.2517L70.3547 60.0892V56.6819L73.5509 55.5194V63.256H64.0424V52.1521L95.724 40.5271Z" fill="white"/>
<path d="M4.71429 81.6155H3.23608V73.9991H4.75424V77.0457C5.0339 76.9254 5.35352 76.8453 5.63318 76.8453C6.2724 76.8453 7.15134 77.0858 7.91042 77.0858C8.23003 77.0858 8.54964 77.0457 8.86926 76.8853V73.9991H10.3475V81.6155H8.82931V78.4086C8.54964 78.5289 8.23003 78.6091 7.95037 78.6091C7.15134 78.6091 6.39226 78.4086 5.67313 78.4086C5.35352 78.4086 5.03391 78.4487 4.71429 78.569V81.6155Z" fill="white"/>
<path d="M16.4201 81.856C14.1029 81.856 11.9455 80.3728 11.9455 77.7672C11.9455 75.1616 14.1429 73.7586 16.4201 73.7586C18.6973 73.7586 20.8947 75.0814 20.8947 77.7271C20.8947 80.3728 18.6973 81.856 16.4201 81.856ZM16.4201 75.322C14.9419 75.322 13.5036 76.0836 13.5036 77.8073C13.5036 79.531 14.9818 80.2927 16.4201 80.2927C17.8584 80.2927 19.2966 79.3707 19.2966 77.7271C19.2966 76.0836 17.8584 75.322 16.4201 75.322Z" fill="white"/>
<path d="M27.1671 81.6155H22.4927V73.9991H27.1671C28.3656 73.919 29.4044 74.881 29.4443 76.0836C29.4443 76.1237 29.4443 76.1237 29.4443 76.1638C29.4843 76.6448 29.2845 77.1259 28.9249 77.4866C29.5242 77.8875 29.8438 78.569 29.8039 79.2504C29.8438 80.7336 28.845 81.6155 27.1671 81.6155ZM24.0109 77.2461C24.77 76.8853 25.569 76.7651 26.368 76.8052H27.1671C27.6864 76.8052 27.9262 76.5647 27.9262 76.1638C27.9262 75.7629 27.6065 75.5224 27.1671 75.5224H24.0109V77.2461ZM24.0109 80.0922H27.1671C27.7663 80.0922 28.3656 79.9319 28.3656 79.2104C28.3656 78.6491 28.0061 78.3685 27.1671 78.3685H26.368C24.9697 78.3685 24.6501 78.4487 24.0109 78.8095V80.0922Z" fill="white"/>
<path d="M35.3571 81.856C33.04 81.856 30.8826 80.3728 30.8826 77.7672C30.8826 75.1616 33.0799 73.7586 35.3571 73.7586C37.6344 73.7586 39.8317 75.0814 39.8317 77.7271C39.8317 80.3728 37.6743 81.856 35.3571 81.856ZM35.3571 75.322C33.8789 75.322 32.4407 76.0836 32.4407 77.8073C32.4407 79.531 33.9189 80.2927 35.3571 80.2927C36.7954 80.2927 38.2337 79.3707 38.2337 77.7271C38.2337 76.0836 36.8354 75.322 35.3571 75.322Z" fill="white"/>
<path d="M47.1029 81.6155V75.5224H42.9879V81.6155H41.5097V73.9991H48.6211V81.6155H47.1029Z" fill="white"/>
<path d="M52.2966 80.0922H57.0508V81.6155H50.7784V73.9991H56.7712V75.5224H52.2567V77.3664C53.0157 77.0056 53.8148 76.8453 54.6138 76.9254H55.7324V78.4487H54.6138C53.2155 78.4487 52.8959 78.5289 52.2567 78.8897V80.0922H52.2966Z" fill="white"/>
<path d="M64.7215 73.9991V81.6155H63.2433V78.8095C62.6041 79.05 61.9649 79.1702 61.2857 79.1302C59.2082 79.1302 57.8898 78.4888 57.8898 76.5646C57.8499 75.6828 57.9697 74.8009 58.1695 73.959H59.6477C59.4479 74.6806 59.3281 75.4021 59.368 76.1638C59.368 77.2862 59.9274 77.6069 61.2857 77.6069C61.9249 77.6069 62.5642 77.4866 63.2034 77.2461V73.959H64.7215V73.9991Z" fill="white"/>
<path d="M68.3971 80.0922H73.1513V81.6155H66.8789V73.9991H72.8717V75.5224H68.3571V77.3664C69.1162 77.0056 69.9153 76.8453 70.7143 76.9254H71.8329V78.4487H70.7143C69.316 78.4487 68.9964 78.5289 68.3571 78.8897V80.0922H68.3971Z" fill="white"/>
<path d="M74.7494 81.6155V73.9991H79.5835C81.0617 73.9991 82.0605 74.9612 82.0605 76.4043C82.0605 77.8474 81.0218 78.8496 79.3039 78.8496H78.6247C77.2264 78.8496 76.9068 78.9297 76.2276 79.2905V81.6155H74.7494ZM76.2276 77.8073C76.9867 77.4466 77.7857 77.2862 78.6247 77.3664H79.3039C80.023 77.3664 80.5024 77.206 80.5024 76.4043C80.5024 75.6828 79.9031 75.5224 79.3039 75.5224H76.2276V77.8073Z" fill="white"/>
<path d="M90.5303 80.7737C89.6513 81.4952 88.5327 81.8961 87.414 81.856C85.0969 81.856 82.9395 80.3728 82.9395 77.7672C82.9395 75.1616 85.1768 73.7586 87.414 73.7586C88.4528 73.7185 89.4915 74.0392 90.3705 74.6405L89.3717 75.803C88.8123 75.4422 88.1332 75.2418 87.454 75.2418C85.9758 75.2418 84.5775 76.0435 84.5775 77.7672C84.5775 79.4909 86.0157 80.2927 87.494 80.2927C88.293 80.2927 89.092 80.0121 89.6913 79.4508L90.5303 80.7737Z" fill="white"/>
<path d="M93.3269 76.4043C93.9661 76.7651 94.3257 76.8453 95.684 76.8453H96.4431C97.9612 76.8453 99.1598 77.647 99.1598 79.2504C99.1598 80.8539 97.9612 81.6155 96.4431 81.6155H91.7688V73.9991H93.2869V76.4043H93.3269ZM96.483 80.0922C97.0823 80.0922 97.6816 79.9319 97.6816 79.2103C97.6816 78.4888 97.0823 78.3685 96.483 78.3685H95.724C94.9249 78.4487 94.086 78.2884 93.3668 77.9276V80.0922H96.483Z" fill="white"/>
<path d="M102.076 81.6155H100.478V73.9991H102.076V77.0858H102.596C102.995 77.1259 103.435 77.0056 103.754 76.7651L105.872 73.9991H107.789L104.993 77.5668L106.271 79.2905C106.591 79.7716 107.11 80.0522 107.669 80.0522H108.189V81.5754H107.55C106.751 81.5754 106.071 81.5353 105.272 80.3728L103.954 78.4487C103.554 78.569 103.155 78.6491 102.715 78.6491H102.076V81.6155Z" fill="white"/>
<path d="M112.184 73.8388H113.822L117.937 81.6155H116.259L115.66 80.453H114.741C112.863 80.453 110.906 81.1746 110.666 81.4952L110.626 81.5754H109.028L112.663 74.7207L112.184 73.8388ZM114.941 79.0901L113.462 76.284L111.665 79.7715C112.623 79.2905 113.662 79.0901 114.741 79.1302L114.941 79.0901Z" fill="white"/>
<path d="M127.406 81.6155H122.731V73.9991H127.406C128.604 73.919 129.643 74.841 129.723 76.0836C129.723 76.1237 129.723 76.1237 129.723 76.1638C129.763 76.6448 129.563 77.1259 129.203 77.4866C129.803 77.8875 130.122 78.569 130.082 79.2504C130.122 80.7336 129.084 81.6155 127.406 81.6155ZM124.249 77.2461C125.008 76.8853 125.807 76.7651 126.607 76.8052H127.406C127.925 76.8052 128.165 76.5647 128.165 76.1638C128.165 75.7629 127.845 75.5224 127.406 75.5224H124.249V77.2461ZM124.249 80.0922H127.406C128.005 80.0922 128.604 79.9319 128.604 79.2104C128.604 78.6491 128.245 78.3685 127.406 78.3685H126.646C125.248 78.3685 124.929 78.4487 124.289 78.8095L124.249 80.0922Z" fill="white"/>
<path d="M133.318 80.0922H138.073V81.6155H131.84V73.9991H137.833V75.5224H133.318V77.3664C134.078 77.0056 134.877 76.8453 135.676 76.9254H136.794V78.4487H135.676C134.277 78.4487 133.958 78.5289 133.318 78.8897V80.0922Z" fill="white"/>
<path d="M144.705 73.9991H146.303V77.0858C146.702 77.1259 147.142 77.0056 147.461 76.7651L149.619 73.9991H151.536L148.74 77.5668L150.018 79.2905C150.338 79.7716 150.857 80.0522 151.416 80.0522H151.816V81.6155H151.297C150.498 81.6155 149.818 81.6155 149.019 80.453L147.701 78.5289C147.262 78.6892 146.782 78.7293 146.303 78.7293V81.6556H144.705V78.7293C144.225 78.7293 143.786 78.6892 143.306 78.5289L141.988 80.453C141.189 81.6155 140.51 81.6155 139.711 81.6155H139.191V80.0522H139.591C140.15 80.0522 140.669 79.7716 140.989 79.2905L142.268 77.5668L139.471 73.9991H141.389L143.546 76.7651C143.866 77.0056 144.305 77.1259 144.705 77.0858V73.9991Z" fill="white"/>
<path d="M155.731 73.8388H157.369L161.484 81.6155H159.806L159.207 80.453H158.288C156.41 80.453 154.453 81.1746 154.213 81.4952L154.173 81.5754H152.575L156.211 74.7207L155.731 73.8388ZM158.488 79.0901L157.01 76.284L155.212 79.7715C156.171 79.2905 157.209 79.0901 158.288 79.1302L158.488 79.0901Z" fill="white"/>
<path d="M41.0303 87.5884H41.3898C42.069 87.5884 42.1489 86.6263 42.3886 86.1052C42.5085 85.8246 42.7882 85.6241 43.0678 85.6642C43.1877 85.6642 43.2676 85.6642 43.3874 85.7043V86.2254C43.3075 86.1854 43.2276 86.1853 43.1477 86.1853C43.0279 86.1853 42.908 86.2655 42.8281 86.3858C42.6283 86.8267 42.5884 87.4681 42.109 87.7888C42.3487 87.9491 42.5484 88.1897 42.6683 88.4302L43.5073 89.9534H42.8681L42.109 88.5504C41.9092 88.1897 41.7494 88.0293 41.6296 88.0293H41.0303V89.9534H40.431V88.0293H39.8317C39.7119 88.0293 39.5121 88.1897 39.3523 88.5504L38.5932 89.9534H37.954L38.793 88.4302C38.9128 88.1496 39.1126 87.9491 39.3523 87.7888C38.8729 87.4681 38.8329 86.8267 38.6332 86.3858C38.5932 86.2655 38.4734 86.1853 38.3136 86.1853C38.2337 86.1853 38.1138 86.1854 38.0339 86.2254V85.7043C38.1538 85.6642 38.2337 85.6642 38.3535 85.6642C38.6731 85.6642 38.9528 85.8246 39.0327 86.1052C39.2724 86.6263 39.3124 87.5884 40.0315 87.5884H40.3911V85.6642H40.9903L41.0303 87.5884Z" fill="white"/>
<path d="M45.7845 89.0715C45.9842 88.7909 46.184 88.4703 46.5036 88.1095L48.3813 85.6642H48.9407V89.9534H48.3414V87.428C48.3414 87.1474 48.3414 86.7465 48.3414 86.506C48.1416 86.8267 47.9019 87.1073 47.6622 87.4681L45.7445 89.9534H45.2252V85.6642H45.8244V88.1496C45.7845 88.4302 45.7845 88.831 45.7845 89.0715Z" fill="white"/>
<path d="M51.8571 86.1452H50.5387V85.6642H53.8947L53.6949 86.1452H52.4564V89.9534H51.8571V86.1452Z" fill="white"/>
<path d="M54.414 89.9935V89.4323C54.4939 89.4323 54.5339 89.4724 54.6138 89.4724C54.8135 89.4724 55.0133 89.3521 55.1332 89.1517C55.5327 88.4702 55.8123 86.8668 55.8922 85.6642H58.0097V89.9534H57.4104V86.1452H56.4116C56.2918 87.1474 56.052 88.7108 55.6126 89.4323C55.4128 89.7931 55.0533 89.9935 54.6937 89.9935C54.5738 89.9935 54.4939 89.9935 54.414 89.9935Z" fill="white"/>
<path d="M64.0424 87.8289C64.0024 88.9914 63.0036 89.9134 61.8051 89.8733C60.6065 89.8332 59.7276 88.831 59.7675 87.6284C59.8075 86.506 60.7663 85.584 61.885 85.584C63.0436 85.584 64.0024 86.506 64.0024 87.6685C64.0424 87.7086 64.0424 87.7888 64.0424 87.8289ZM63.4031 87.8289C63.4031 86.7866 62.7639 86.1052 61.885 86.1052C61.006 86.1052 60.3668 86.7866 60.3668 87.8289C60.3668 88.8711 61.006 89.5526 61.885 89.5526C62.7639 89.5526 63.4031 88.8711 63.4031 87.8289Z" fill="white"/>
<path d="M67.7978 87.7086C68.2773 87.7888 68.6768 88.2297 68.6368 88.7509C68.6368 89.3521 68.2373 89.9534 67.1187 89.9534H65.8402V85.6642H67.1187C67.9976 85.6642 68.3971 86.1853 68.3971 86.7866C68.4371 87.1875 68.1974 87.5483 67.7978 87.7086ZM67.0388 87.5483C67.4383 87.5884 67.7978 87.3077 67.8378 86.947C67.8378 86.9069 67.8378 86.8668 67.8378 86.8267C67.8378 86.4259 67.5182 86.1453 67.1586 86.1052C67.1187 86.1052 67.0787 86.1052 67.0388 86.1052H66.4395V87.5082L67.0388 87.5483ZM67.0787 89.5125C67.7978 89.5125 68.0375 89.1918 68.0375 88.7509C68.0375 88.3099 67.7179 88.0293 67.1986 88.0293H66.4395V89.5125H67.0787Z" fill="white"/>
<path d="M71.0738 89.0715C71.2736 88.7909 71.4734 88.4703 71.793 88.1095L73.6707 85.6642H74.23V89.9534H73.6307V87.428C73.6307 87.1474 73.6307 86.7465 73.6307 86.506C73.431 86.8267 73.1913 87.1073 72.9516 87.4681L71.0339 89.9534H70.5145V85.6642H71.1138V88.1496C71.0738 88.4302 71.0738 88.831 71.0738 89.0715Z" fill="white"/>
<path d="M76.9068 89.0715C77.1065 88.7909 77.3063 88.4702 77.6259 88.1095L79.5036 85.6642H80.0629V89.9534H79.4637V87.428C79.4637 87.1474 79.4637 86.7465 79.4637 86.506C79.2639 86.8267 79.0242 87.1073 78.7845 87.4681L76.8668 89.9534H76.3075V85.6642H76.9068V88.1496C76.9068 88.4302 76.9068 88.831 76.9068 89.0715ZM76.9867 84.1409H77.506C77.506 84.5418 77.8257 84.8224 78.1852 84.8224C78.5847 84.8224 78.8644 84.5017 78.8644 84.1409H79.3838C79.3838 84.7823 78.9443 85.2633 78.1852 85.2633C77.4261 85.2633 76.9867 84.7823 76.9867 84.1409Z" fill="white"/>
<path d="M86.615 87.7888C86.8547 87.9491 87.0545 88.1896 87.1743 88.4302L88.0133 89.9534H87.3741L86.615 88.5504C86.4153 88.1896 86.2555 88.0293 86.1356 88.0293H85.4964V89.9534H84.8971V85.6642H85.4964V87.5483H85.8959C86.5751 87.5483 86.655 86.5862 86.9346 86.0651C87.0545 85.7845 87.3341 85.584 87.6138 85.6241C87.7337 85.6241 87.8535 85.6241 87.9334 85.6642V86.1853C87.8535 86.1452 87.7736 86.1452 87.6937 86.1452C87.5739 86.1452 87.454 86.2254 87.3741 86.3457C87.1344 86.8267 87.0545 87.4681 86.615 87.7888Z" fill="white"/>
<path d="M93.4867 87.8289C93.4467 88.9914 92.4479 89.9134 91.2494 89.8733C90.0508 89.8332 89.1719 88.831 89.2118 87.6284C89.2518 86.506 90.2106 85.584 91.3293 85.584C92.4879 85.584 93.4467 86.506 93.4467 87.6685C93.4867 87.7086 93.4867 87.7888 93.4867 87.8289ZM92.8874 87.8289C92.8874 86.7866 92.2482 86.1052 91.3692 86.1052C90.4903 86.1052 89.8511 86.7866 89.8511 87.8289C89.8511 88.8711 90.4903 89.5526 91.3692 89.5526C92.2482 89.5526 92.8874 88.8711 92.8874 87.8289Z" fill="white"/>
<path d="M95.3245 85.6642H95.8438L96.8826 87.2276C97.1223 87.5884 97.322 87.909 97.4419 88.1095C97.5618 87.909 97.7615 87.5884 98.0012 87.2276L99 85.6642H99.5593V89.9534H98.9601V87.5082C98.9601 87.2276 98.9601 86.8267 99 86.6263C98.8802 86.8267 98.6405 87.1875 98.5206 87.428L97.6417 88.7909H97.322L96.4431 87.428C96.2833 87.1875 96.0835 86.8668 95.9637 86.6263C95.9637 86.8267 95.9637 87.2276 95.9637 87.5082V89.9534H95.3644L95.3245 85.6642Z" fill="white"/>
<path d="M101.637 85.6642H104.953V89.9534H104.354V86.1452H102.236V89.9534H101.637V85.6642Z" fill="white"/>
<path d="M106.551 89.9935V89.4323C106.631 89.4323 106.671 89.4724 106.751 89.4724C106.95 89.4724 107.15 89.3521 107.27 89.1517C107.669 88.4702 107.949 86.8668 108.029 85.6642H110.146V89.9534H109.547V86.1452H108.548C108.429 87.1474 108.189 88.7108 107.749 89.4323C107.55 89.7931 107.19 89.9935 106.83 89.9935C106.711 89.9935 106.631 89.9935 106.551 89.9935Z" fill="white"/>
<path d="M112.224 85.6642H114.661L114.461 86.1452H112.823V87.5483H114.421V88.0293H112.823V89.4724H114.581V89.9534H112.224V85.6642Z" fill="white"/>
<path d="M118.137 87.7888C118.377 87.9491 118.576 88.1896 118.696 88.4302L119.535 89.9534H118.896L118.137 88.5504C117.937 88.1896 117.777 88.0293 117.657 88.0293H117.018V89.9534H116.419V85.6642H117.018V87.5483H117.418C118.097 87.5483 118.177 86.5862 118.416 86.0651C118.536 85.7845 118.816 85.584 119.096 85.6241C119.216 85.6241 119.335 85.6241 119.415 85.6642V86.1853C119.335 86.1452 119.255 86.1452 119.176 86.1452C119.056 86.1452 118.936 86.2254 118.856 86.3457C118.696 86.8267 118.616 87.4681 118.137 87.7888Z" fill="white"/>
<path d="M124.13 89.7129C123.73 89.9534 123.291 90.0737 122.851 90.0737C121.732 90.1138 120.814 89.272 120.774 88.1897C120.774 88.1095 120.774 88.0293 120.774 87.9091C120.694 86.7065 121.613 85.7043 122.771 85.6241C122.811 85.6241 122.891 85.6241 122.931 85.6241C123.291 85.6241 123.65 85.7043 123.97 85.8647V86.3858C123.65 86.2254 123.331 86.1453 122.971 86.1453C122.092 86.1453 121.373 86.8267 121.333 87.7086C121.333 87.7487 121.333 87.8289 121.333 87.869C121.333 88.9112 121.972 89.5526 122.851 89.5526C123.211 89.5526 123.61 89.4724 123.93 89.272L124.13 89.7129Z" fill="white"/>
</svg>
