<svg width="36" height="36" viewBox="0 0 36 36" fill="none" xmlns="http://www.w3.org/2000/svg">
<g clip-path="url(#clip0)">
<path d="M28.6579 6.16479C26.4731 2.39436 22.5924 0.0908484 18.277 0.00281714C18.0927 -0.000979736 17.9073 -0.000979736 17.723 0.00281714C13.4077 0.0908484 9.52698 2.39436 7.34209 6.16479C5.10883 10.0188 5.04772 14.6481 7.17862 18.5484L16.1057 34.8881C16.1097 34.8954 16.1137 34.9026 16.1179 34.9098C16.5106 35.5925 17.2142 36 18.0001 36C18.7859 36 19.4896 35.5924 19.8823 34.9098C19.8864 34.9026 19.8904 34.8954 19.8944 34.8881L28.8215 18.5484C30.9523 14.6481 30.8912 10.0188 28.6579 6.16479ZM18 16.3125C15.2085 16.3125 12.9375 14.0415 12.9375 11.25C12.9375 8.45853 15.2085 6.1875 18 6.1875C20.7915 6.1875 23.0625 8.45853 23.0625 11.25C23.0625 14.0415 20.7915 16.3125 18 16.3125Z" fill="#F9A80B"/>
</g>
<defs>
<clipPath id="clip0">
<rect width="36" height="36" fill="white"/>
</clipPath>
</defs>
</svg>
